<?xml version="1.0" standalone="no"?>
<!DOCTYPE svg PUBLIC "-//W3C//DTD SVG 20010904//EN"
 "http://www.w3.org/TR/2001/REC-SVG-20010904/DTD/svg10.dtd">
<svg version="1.0" xmlns="http://www.w3.org/2000/svg"
 width="190.000000pt" height="190.000000pt" viewBox="0 0 190.000000 190.000000"
 preserveAspectRatio="xMidYMid meet">
<metadata>
Created by potrace 1.11, written by Peter Selinger 2001-2013
</metadata>
<g transform="translate(0.000000,190.000000) scale(0.100000,-0.100000)"
fill="#000000" stroke="none">
<path d="M663 1237 l-288 -287 288 -287 287 -287 288 287 287 287 -287 287
-288 286 -287 -286z m539 -40 l174 -173 -2 -77 -2 -76 -173 -171 -173 -170
-76 0 -76 0 -174 171 -174 171 1 78 0 79 174 170 173 171 77 0 76 0 175 -173z"/>
<path d="M634 950 c0 -72 12 -96 18 -37 l4 32 11 -27 c7 -14 17 -29 24 -34 9
-5 10 -2 4 12 -30 72 -30 72 -10 94 10 11 16 23 13 26 -3 3 -15 -7 -27 -22
l-21 -27 0 27 c0 14 -4 26 -8 26 -5 0 -8 -31 -8 -70z"/>
<path d="M733 1008 c-8 -11 -9 -51 -4 -113 1 -18 44 -20 59 -2 11 14 11 96 -1
115 -5 6 -16 12 -26 12 -10 0 -23 -6 -28 -12z m42 -59 c0 -41 -4 -54 -15 -54
-16 0 -27 73 -16 102 13 33 31 5 31 -48z"/>
<path d="M899 1015 c-9 -16 -5 -71 7 -86 6 -8 15 -23 19 -34 l8 -20 5 20 c2
11 9 26 14 32 12 16 19 74 10 88 -4 6 -9 -10 -12 -35 -3 -31 -10 -45 -20 -45
-10 0 -17 14 -20 45 -3 25 -8 41 -11 35z"/>
<path d="M1003 1009 c-14 -14 -6 -37 24 -68 24 -25 26 -42 5 -49 -7 -2 -16 6
-20 19 -6 15 -11 19 -16 10 -10 -16 11 -41 35 -41 10 0 23 9 29 20 9 17 6 26
-20 52 -17 17 -29 37 -26 44 8 21 27 17 33 -6 3 -11 9 -17 14 -14 14 8 -10 44
-29 44 -10 0 -23 -5 -29 -11z"/>
<path d="M1107 1013 c-10 -18 -7 -122 4 -129 8 -5 10 -1 7 13 -10 37 8 48 23
14 8 -17 17 -31 21 -31 12 0 9 14 -7 36 -19 25 -19 53 2 76 14 15 14 18 1 18
-8 0 -20 -10 -26 -22 -10 -22 -11 -22 -13 -3 -1 11 -1 23 0 28 0 4 -1 7 -3 7
-3 0 -7 -3 -9 -7z"/>
<path d="M1203 1008 c-14 -19 -16 -98 -2 -114 14 -17 45 -18 55 -2 11 18 13
91 2 111 -10 20 -41 23 -55 5z m47 -57 c0 -52 -5 -62 -26 -54 -18 7 -19 99 -1
106 21 8 27 -3 27 -52z"/>
<path d="M833 948 c2 -62 2 -63 32 -66 22 -2 26 0 15 7 -8 5 -18 7 -22 5 -4
-3 -8 22 -8 55 0 34 -4 61 -10 61 -5 0 -8 -27 -7 -62z"/>
</g>
</svg>
